<svg xmlns="http://www.w3.org/2000/svg" viewBox="0 0 2892.3 1018">
  <title>investor</title>
  <g id="Layer_2" data-name="Layer 2">
    <g id="investor">
      <g>
        <path d="M441.5,963.5A181.1,181.1,0,0,1,351,939.3L90.5,788.9A181.5,181.5,0,0,1,0,632.1V331.4A181.5,181.5,0,0,1,90.5,174.6L351,24.2a181.3,181.3,0,0,1,181.1,0L792.5,174.6a181.4,181.4,0,0,1,90.6,156.8V632.1a181.4,181.4,0,0,1-90.6,156.8L532.1,939.3A181.7,181.7,0,0,1,441.5,963.5Zm0-884.7a102.1,102.1,0,0,0-51.1,13.6L129.9,242.8a102.6,102.6,0,0,0-51.1,88.6V632.1a102.7,102.7,0,0,0,51.1,88.6L390.4,871.1a102.5,102.5,0,0,0,102.2,0L753.1,720.7a102.5,102.5,0,0,0,51.1-88.6V331.4a102.3,102.3,0,0,0-51.1-88.6L492.6,92.4A101.9,101.9,0,0,0,441.5,78.8Z" fill="#fff"/>
        <g>
          <g>
            <path d="M1439.4,111.9V402.5H1402c-5.5,0-10.2-.8-13.9-2.6s-7.5-4.9-11.2-9.2L1231,206.1c.6,5.5,1,10.9,1.2,16s.3,10,.3,14.6V402.5h-63.3V93.1H1207a60.1,60.1,0,0,1,7.9.4,19.9,19.9,0,0,1,5.7,1.6,21.1,21.1,0,0,1,4.9,3.3,63.5,63.5,0,0,1,5.3,5.7L1378,290c-.7-6-1.2-11.7-1.5-17.3s-.4-10.9-.4-15.8V93.1h44.5A18.8,18.8,0,0,1,1439.4,111.9Z" fill="#fff"/>
            <path d="M1760.9,111.9V402.5h-37.4c-5.5,0-10.1-.8-13.9-2.6a35,35,0,0,1-11.1-9.2l-146-184.6c.6,5.5,1,10.9,1.2,16s.3,10,.3,14.6V402.5h-63.3V93.1h37.9a57.5,57.5,0,0,1,7.8.4,19.9,19.9,0,0,1,5.7,1.6,19.2,19.2,0,0,1,4.9,3.3,43.5,43.5,0,0,1,5.3,5.7L1699.5,290c-.7-6-1.2-11.7-1.5-17.3s-.4-10.9-.4-15.8V93.1h44.5A18.8,18.8,0,0,1,1760.9,111.9Z" fill="#fff"/>
            <path d="M1117.9,402.5H1071a25.3,25.3,0,0,1-25.3-25.3V93.1h51.9a20.2,20.2,0,0,1,20.3,20.2Z" fill="#fff"/>
          </g>
          <g>
            <path d="M2133.3,247.7c0,22.4-3.8,43.2-11.6,62.5a147.5,147.5,0,0,1-83.2,83.6q-29.7,12.1-65.7,12.1t-65.9-12.1a148.8,148.8,0,0,1-50.8-33.4,151.2,151.2,0,0,1-32.8-50.2q-11.5-28.9-11.5-62.5c0-22.3,3.8-43.2,11.5-62.4a148.7,148.7,0,0,1,32.8-50.1c14-14.2,31-25.3,50.8-33.4s41.8-12.1,65.9-12.1,45.9,4.1,65.7,12.2,36.6,19.3,50.6,33.5a146.7,146.7,0,0,1,32.6,50.1C2129.5,204.7,2133.3,225.5,2133.3,247.7Zm-73.5,0c0-15.3-1.9-29-5.9-41.3s-9.7-22.6-17.1-31.1a72.7,72.7,0,0,0-27.3-19.5c-10.8-4.6-23-6.8-36.7-6.8s-26.3,2.2-37.1,6.8a73.1,73.1,0,0,0-27.4,19.5c-7.4,8.5-13.1,18.9-17.1,31.1s-5.9,26-5.9,41.3,1.9,29.3,5.9,41.5,9.7,22.7,17.1,31.2a72.8,72.8,0,0,0,27.4,19.4c10.8,4.4,23.2,6.7,37.1,6.7s25.9-2.3,36.7-6.7a72.5,72.5,0,0,0,27.3-19.4q11.1-12.7,17.1-31.2C2057.9,277,2059.8,263.2,2059.8,247.7Z" fill="#fff"/>
            <path d="M2454.3,111.9V402.5h-37.4c-5.5,0-10.2-.8-13.9-2.6s-7.5-4.9-11.2-9.2L2245.9,206.1c.6,5.5,1,10.9,1.2,16s.3,10,.3,14.6V402.5h-63.3V93.1h37.8a58.2,58.2,0,0,1,7.9.4,19.9,19.9,0,0,1,5.7,1.6,19.2,19.2,0,0,1,4.9,3.3,51.6,51.6,0,0,1,5.3,5.7L2392.9,290c-.7-6-1.2-11.7-1.5-17.3s-.4-10.9-.4-15.8V93.1h44.5A18.8,18.8,0,0,1,2454.3,111.9Z" fill="#fff"/>
            <path d="M2853.9,322.5a15.2,15.2,0,0,1,5.1.9,14.8,14.8,0,0,1,4.8,3.3l28.5,30a118.6,118.6,0,0,1-46.8,36.8q-28.2,12.5-66.6,12.4-35.2,0-63.2-12a135.9,135.9,0,0,1-47.4-33.1,146.4,146.4,0,0,1-29.8-50.1q-10.4-28.9-10.4-63t11.2-63.6c7.6-19.3,18.1-36,31.7-50a143.5,143.5,0,0,1,48.8-32.7q28.5-11.7,62.7-11.7a163.8,163.8,0,0,1,32.8,3.1,155.9,155.9,0,0,1,28.8,8.5,130.7,130.7,0,0,1,24.6,13,132.6,132.6,0,0,1,20,16.6l-24.2,32.5a31.3,31.3,0,0,1-5.5,5.4c-2.2,1.6-5.1,2.5-9,2.5a16.5,16.5,0,0,1-7.2-1.7,69.9,69.9,0,0,1-7.2-4.2l-8.4-5.3a63.9,63.9,0,0,0-10.8-5.3,90.3,90.3,0,0,0-14.7-4.1,94.7,94.7,0,0,0-19.6-1.7,80.4,80.4,0,0,0-32.6,6.5,69.7,69.7,0,0,0-25.5,19.3c-7.2,8.4-12.7,18.7-16.6,31s-5.8,26.2-5.8,41.9,2.1,30,6.5,42.3,10.1,22.7,17.6,31.1a74.9,74.9,0,0,0,26,19.2,77.5,77.5,0,0,0,31.9,6.6,139.2,139.2,0,0,0,17.8-1,85.8,85.8,0,0,0,15.1-3.1,59.9,59.9,0,0,0,13.1-6,83.9,83.9,0,0,0,12.6-9.4,24.4,24.4,0,0,1,5.5-3.5A13.4,13.4,0,0,1,2853.9,322.5Z" fill="#fff"/>
            <path d="M2577.5,403.3h-47a25.3,25.3,0,0,1-25.3-25.3V93.9h52a20.3,20.3,0,0,1,20.3,20.2Z" fill="#fff"/>
          </g>
        </g>
        <text transform="translate(1045.7 696.3)" font-size="254.43" fill="#add6e1" font-family="Raleway-Bold, Raleway" font-weight="700">INV<tspan x="438.9" y="0" letter-spacing="-0.01em">E</tspan><tspan x="588" y="0" letter-spacing="0em">S</tspan><tspan x="742.7" y="0" letter-spacing="-0.03em">T</tspan><tspan x="891.8" y="0" letter-spacing="0em">OR</tspan><tspan x="0" y="263.5">NE</tspan><tspan x="347" y="263.5" letter-spacing="-0.02em">W</tspan><tspan x="610.6" y="263.5">SLETTER</tspan></text>
        <path d="M638.4,345.8V636.5H601a31.9,31.9,0,0,1-13.9-2.7c-3.8-1.7-7.5-4.8-11.2-9.2L430,440c.6,5.5,1,10.9,1.2,16.1s.3,10,.3,14.5V636.5H368.2V327H406a57.2,57.2,0,0,1,7.9.5,17.2,17.2,0,0,1,5.7,1.6,17.9,17.9,0,0,1,4.9,3.2,65.5,65.5,0,0,1,5.3,5.8L577,523.9c-.7-5.9-1.2-11.7-1.5-17.3s-.4-10.9-.4-15.8V327h44.5A18.9,18.9,0,0,1,638.4,345.8Z" fill="#fff"/>
        <path d="M316.9,636.5H270a25.3,25.3,0,0,1-25.3-25.3V327h52a20.3,20.3,0,0,1,20.2,20.2Z" fill="#fff"/>
      </g>
    </g>
  </g>
</svg>
